<?xml version="1.0" encoding="UTF-8" standalone="no"?>
<!-- Created with Inkscape (http://www.inkscape.org/) -->

<svg
   xmlns:dc="http://purl.org/dc/elements/1.1/"
   xmlns:cc="http://creativecommons.org/ns#"
   xmlns:rdf="http://www.w3.org/1999/02/22-rdf-syntax-ns#"
   xmlns:svg="http://www.w3.org/2000/svg"
   xmlns="http://www.w3.org/2000/svg"
   xmlns:sodipodi="http://sodipodi.sourceforge.net/DTD/sodipodi-0.dtd"
   xmlns:inkscape="http://www.inkscape.org/namespaces/inkscape"
   width="14.287591mm"
   height="15.87496mm"
   viewBox="0 0 14.287591 15.87496"
   version="1.1"
   id="svg8"
   inkscape:version="0.92.3 (2405546, 2018-03-11)"
   sodipodi:docname="floors.svg">
  <defs
     id="defs2" />
  <sodipodi:namedview
     id="base"
     pagecolor="#ffffff"
     bordercolor="#666666"
     borderopacity="1.0"
     inkscape:pageopacity="0.0"
     inkscape:pageshadow="2"
     inkscape:zoom="5.4703704"
     inkscape:cx="33.882527"
     inkscape:cy="33.357068"
     inkscape:document-units="mm"
     inkscape:current-layer="layer1"
     showgrid="false"
     fit-margin-top="0"
     fit-margin-left="0"
     fit-margin-right="0"
     fit-margin-bottom="0"
     inkscape:window-width="960"
     inkscape:window-height="1025"
     inkscape:window-x="0"
     inkscape:window-y="27"
     inkscape:window-maximized="0" />
  <metadata
     id="metadata5">
    <rdf:RDF>
      <cc:Work
         rdf:about="">
        <dc:format>image/svg+xml</dc:format>
        <dc:type
           rdf:resource="http://purl.org/dc/dcmitype/StillImage" />
        <dc:title></dc:title>
        <dc:creator>
          <cc:Agent>
            <dc:title>Creaticca Creative Agency</dc:title>
          </cc:Agent>
        </dc:creator>
        <dc:publisher>
          <cc:Agent>
            <dc:title>the Noun Project</dc:title>
          </cc:Agent>
        </dc:publisher>
      </cc:Work>
    </rdf:RDF>
  </metadata>
  <g
     inkscape:label="Layer 1"
     inkscape:groupmode="layer"
     id="layer1"
     transform="translate(-13.025172,-41.348883)">
    <g
       id="g1212">
      <path
         d="m 13.554489,51.768666 v -4.964557 l 4.964554,2.482279 z m 13.229166,0 -4.964554,-2.482278 4.964554,-2.482279 z M 13.044107,53.61269 c 0.0067,0.01512 0.01483,0.02956 0.02432,0.0431 0.0081,0.01507 0.01767,0.02929 0.02861,0.04244 0.0134,0.01298 0.02814,0.02449 0.04399,0.03433 0.0095,0.0087 0.01975,0.0167 0.03054,0.02384 l 6.879167,3.439583 c 0.0023,0.0012 0.0051,6.35e-4 0.0074,0.0017 0.06984,0.03488 0.152016,0.03488 0.221853,0 0.0024,-0.0011 0.0051,-5.82e-4 0.0074,-0.0017 L 27.166553,53.7564 c 0.01079,-0.0071 0.02099,-0.01511 0.03054,-0.02384 0.01584,-0.0098 0.03059,-0.02135 0.04399,-0.03433 0.01989,-0.02706 0.03759,-0.05567 0.05293,-0.08554 0.0058,-0.01827 0.0097,-0.03713 0.01135,-0.05623 0.0034,-0.01204 0.0059,-0.02432 0.0074,-0.03674 v -8.466666 c 0,-0.0028 -0.0015,-0.0052 -0.0016,-0.0079 -0.0014,-0.01359 -0.0038,-0.02706 -0.0073,-0.04028 -0.002,-0.01518 -0.0053,-0.03015 -0.0099,-0.04475 -0.0022,-0.0059 -0.0043,-0.01159 -0.0069,-0.01731 -0.0012,-0.0026 -9e-4,-0.0055 -0.0022,-0.0081 -0.0057,-0.0084 -0.012,-0.01639 -0.01873,-0.024 -0.0073,-0.01276 -0.01569,-0.02487 -0.02508,-0.03617 -0.0047,-0.0051 -0.0093,-0.0097 -0.01442,-0.0144 -0.01122,-0.0093 -0.02322,-0.0176 -0.03587,-0.02484 -0.0077,-0.0068 -0.01578,-0.01312 -0.02424,-0.01893 l -6.879167,-3.439583 c -0.0745,-0.03721 -0.162172,-0.03721 -0.236677,0 l -6.879167,3.439583 c -0.0085,0.0058 -0.01656,0.01212 -0.02424,0.01893 -0.01264,0.0072 -0.02464,0.01555 -0.03587,0.02484 -0.0051,0.0047 -0.0097,0.0093 -0.01442,0.0144 -0.0094,0.01131 -0.01778,0.02341 -0.02508,0.03617 -0.0067,0.0076 -0.01299,0.01562 -0.01873,0.024 -0.0013,0.0026 -9.68e-4,0.0054 -0.0022,0.0081 -0.0026,0.0057 -0.0047,0.01138 -0.0069,0.01731 -0.0046,0.0146 -0.0079,0.02957 -0.0099,0.04475 -0.0035,0.01321 -0.006,0.02668 -0.0074,0.04028 -6.8e-5,0.0028 -0.0016,0.0051 -0.0016,0.0079 v 8.466666 c 0.0015,0.01241 0.004,0.0247 0.0074,0.03674 0.0017,0.01911 0.0055,0.03796 0.01136,0.05623 z"
         style="fill:#266726;fill-opacity:1;fill-rule:nonzero;stroke:none;stroke-width:0.26458332"
         id="path1158"
         inkscape:connector-curvature="0" />
      <path
         id="path1178"
         d="m 15.803447,44.09213 1.657263,0.828633 -1.921846,0.960924 -1.657263,-0.828632 z"
         style="fill:#cfe5b5;fill-opacity:1;fill-rule:nonzero;stroke:none;stroke-width:0.26458332"
         inkscape:connector-curvature="0" />
      <path
         id="path1176"
         d="m 18.052405,42.967651 1.657263,0.828633 -1.657263,0.828632 -1.657262,-0.828632 z"
         style="fill:#cfe5b5;fill-opacity:1;fill-rule:nonzero;stroke:none;stroke-width:0.26458332"
         inkscape:connector-curvature="0" />
      <path
         id="path1174"
         d="m 24.075293,43.86243 -1.524971,0.762486 -1.657263,-0.828632 1.524971,-0.762487 z"
         style="fill:#00492c;fill-opacity:1;fill-rule:nonzero;stroke:none;stroke-width:0.26458332"
         inkscape:connector-curvature="0" />
      <path
         id="path1172"
         d="m 26.456543,45.053055 -1.524971,0.762486 -1.789554,-0.894778 1.524971,-0.762487 z"
         style="fill:#67969e;fill-opacity:1;fill-rule:nonzero;stroke:none;stroke-width:0.26458332"
         inkscape:connector-curvature="0" />
      <path
         id="path1170"
         d="m 20.169072,55.340541 -1.789554,-0.894778 1.921846,-0.960924 1.789554,0.894778 z"
         style="fill:#cfe5b5;fill-opacity:1;fill-rule:nonzero;stroke:none;stroke-width:0.26458332"
         inkscape:connector-curvature="0" />
      <path
         id="path1168"
         d="m 20.050732,50.052235 c 0.0023,0.0012 0.0051,6.35e-4 0.0074,0.0017 0.06984,0.03488 0.152015,0.03488 0.221853,0 0.0024,-0.0011 0.0051,-5.82e-4 0.0074,-0.0017 l 0.940003,-0.470001 0.59893,0.299466 -1.524971,0.762487 -1.657263,-0.828632 0.466638,-0.233321 z"
         style="fill:#cfe5b5;fill-opacity:1;fill-rule:nonzero;stroke:none;stroke-width:0.26458332"
         inkscape:connector-curvature="0" />
      <path
         id="path1164"
         d="m 18.052405,50.111401 1.657263,0.828633 -1.657263,0.828632 -1.657262,-0.828632 z"
         style="fill:#cfe5b5;fill-opacity:1;fill-rule:nonzero;stroke:none;stroke-width:0.26458332"
         inkscape:connector-curvature="0" />
      <path
         id="path1162"
         d="m 20.301364,51.23588 1.657262,0.828633 -1.657262,0.828633 -1.657263,-0.828633 z"
         style="fill:#00492c;fill-opacity:1;fill-rule:nonzero;stroke:none;stroke-width:0.26458332"
         inkscape:connector-curvature="0" />
      <path
         id="path1160"
         d="m 20.893059,50.940034 1.524971,-0.762487 1.657263,0.828633 -1.524971,0.762486 z"
         style="fill:#00492c;fill-opacity:1;fill-rule:nonzero;stroke:none;stroke-width:0.26458332"
         inkscape:connector-curvature="0" />
      <path
         id="path1156"
         d="m 15.803447,51.235883 1.657263,0.82863 -1.921846,0.960924 -1.657263,-0.828632 z"
         style="fill:#cfe5b5;fill-opacity:1;fill-rule:nonzero;stroke:none;stroke-width:0.26458332"
         inkscape:connector-curvature="0" />
      <path
         id="path1154"
         d="m 18.052405,52.360362 1.657263,0.82863 -1.921846,0.960924 -1.657263,-0.828632 z"
         style="fill:#cfe5b5;fill-opacity:1;fill-rule:nonzero;stroke:none;stroke-width:0.26458332"
         inkscape:connector-curvature="0" />
      <path
         id="path1152"
         d="m 22.682614,54.083771 -1.789555,-0.894779 1.657263,-0.828633 1.789554,0.894779 z"
         style="fill:#00492c;fill-opacity:1;fill-rule:nonzero;stroke:none;stroke-width:0.26458332"
         inkscape:connector-curvature="0" />
      <path
         id="path1150"
         d="m 24.931572,52.959291 -1.789554,-0.894778 1.524971,-0.762487 1.789554,0.894779 z"
         style="fill:#67969e;fill-opacity:1;fill-rule:nonzero;stroke:none;stroke-width:0.26458332"
         inkscape:connector-curvature="0" />
      <path
         id="path1148"
         d="m 26.783655,46.212416 -6.35,3.175 v -0.731223 l 6.35,-3.175 z"
         style="fill:#72808a;fill-opacity:1;fill-rule:nonzero;stroke:none;stroke-width:0.26458332"
         inkscape:connector-curvature="0" />
      <path
         id="path1146"
         d="m 22.682614,46.940021 -1.789555,-0.894779 1.657263,-0.828633 1.789554,0.894779 z"
         style="fill:#00492c;fill-opacity:1;fill-rule:nonzero;stroke:none;stroke-width:0.26458332"
         inkscape:connector-curvature="0" />
      <path
         id="path1144"
         d="m 22.090918,47.235867 -1.921846,0.960924 -1.789554,-0.894778 1.921846,-0.960924 z"
         style="fill:#cfe5b5;fill-opacity:1;fill-rule:nonzero;stroke:none;stroke-width:0.26458332"
         inkscape:connector-curvature="0" />
      <path
         id="path1142"
         d="m 17.787822,47.006166 -1.657263,-0.828632 1.921846,-0.960925 1.657263,0.828633 z"
         style="fill:#cfe5b5;fill-opacity:1;fill-rule:nonzero;stroke:none;stroke-width:0.26458332"
         inkscape:connector-curvature="0" />
      <path
         id="path1140"
         d="m 19.904489,48.656195 v 0.731221 l -6.35,-3.175 v -0.731223 z"
         style="fill:#72808a;fill-opacity:1;fill-rule:nonzero;stroke:none;stroke-width:0.26458332"
         inkscape:connector-curvature="0" />
      <path
         id="path1138"
         d="m 13.554489,52.624945 6.35,3.175 v 0.731221 l -6.35,-3.175 z"
         style="fill:#72808a;fill-opacity:1;fill-rule:nonzero;stroke:none;stroke-width:0.26458332"
         inkscape:connector-curvature="0" />
      <path
         id="path1136"
         d="m 20.433655,55.799945 6.35,-3.175 v 0.731221 l -6.35,3.175 z"
         style="fill:#72808a;fill-opacity:1;fill-rule:nonzero;stroke:none;stroke-width:0.26458332"
         inkscape:connector-curvature="0" />
      <path
         id="path1134"
         d="m 21.958626,44.920763 -1.657262,0.828633 -1.657263,-0.828633 1.657263,-0.828633 z"
         style="fill:#00492c;fill-opacity:1;fill-rule:nonzero;stroke:none;stroke-width:0.26458332"
         inkscape:connector-curvature="0" />
      <path
         id="path879"
         d="m 20.169072,41.909318 1.657263,0.828632 -1.524971,0.762487 -1.657263,-0.828632 z"
         style="fill:#cfe5b5;fill-opacity:1;fill-rule:nonzero;stroke:none;stroke-width:0.26458332"
         inkscape:connector-curvature="0" />
    </g>
  </g>
</svg>
