<?xml version="1.0" encoding="UTF-8" standalone="no"?>
<svg
   xmlns:dc="http://purl.org/dc/elements/1.1/"
   xmlns:cc="http://creativecommons.org/ns#"
   xmlns:rdf="http://www.w3.org/1999/02/22-rdf-syntax-ns#"
   xmlns:svg="http://www.w3.org/2000/svg"
   xmlns="http://www.w3.org/2000/svg"
   height="64.000023"
   width="90"
   id="svg10"
   viewBox="0 0 90 64.000023"
   y="0px"
   x="0px"
   version="1.1">
  <metadata
     id="metadata16">
    <rdf:RDF>
      <cc:Work
         rdf:about="">
        <dc:format>image/svg+xml</dc:format>
        <dc:type
           rdf:resource="http://purl.org/dc/dcmitype/StillImage" />
        <dc:title></dc:title>
      </cc:Work>
    </rdf:RDF>
  </metadata>
  <defs
     id="defs14" />
  <path
     id="path1356"
     d="M 29.78125,0.01029 C 28.79851,0.11839 27.978759,1.05429 28,2.04369 V 26.92781 L 20.46875,18.6999 c -0.928891,-0.7696 -1.55452,-0.9179 -2.57579,-0.3273 -1.13583,0.8627 -1.016891,2.0707 -0.36171,3.0492 l 11,12.01322 c 0.746449,0.8084 2.19105,0.8084 2.9375,0 l 11,-12.01322 c 0.71178,-0.7699 0.659689,-2.1188 -0.10935,-2.8313 -0.76904,-0.7126 -2.11637,-0.6604 -2.82815,0.1094 L 32,26.92781 V 2.04369 c 0.0244,-1.1357 -1.09078,-2.1578 -2.21875,-2.0334 z"
     style="color:#000000;display:inline;overflow:visible;visibility:visible;fill:#00492c;stroke:none;enable-background:accumulate;fill-opacity:1" />
  <path
     d="m 50,34.09202 c 3.865989,0 7,2.6892 7,6.0066 0,3.3174 -3.134011,6.0066 -7,6.0066 -3.865989,0 -7,-2.6892 -7,-6.0066 0,-3.3174 3.134011,-6.0066 7,-6.0066 z M 45,21.0776 c -0.834051,0.1003 -1.253231,0.4192 -1.71875,0.9385 4.774771,3.54601 8.29318,7.57081 9.3125,10.51162 -0.8222,-0.2111 -1.69524,-0.3128 -2.59375,-0.3128 -0.66372,0 -1.312821,0.07 -1.9375,0.1877 C 47.06154,30.80982 44.14449,27.73971 40.5,25.0194 l -8.28125,9.07262 c -1.12069,1.2325 -3.316811,1.2325 -4.4375,0 l -5.4375,-5.94411 -10.4375,3.25361 c 1.636719,2.367 5.682249,4.7921 11,6.038 5.13822,1.2027 11.498491,1.7038 18.03125,1.5954 -0.0541,0.3441 -0.0937,0.7078 -0.0937,1.0637 0,1.0459 0.24962,2.0256 0.6875,2.9407 -6.953119,0.1473 -13.79417,-0.3776 -19.53125,-1.7206 -6.29818,-1.4756 -11.784349,-4.3049 -14.0312495,-8.6972 L 0,35.09312 42.0625,63.18662 c -1.49148,-4.497 -1.23361,-8.478 -0.15625,-11.8568 0.60499,-1.8982 1.43397,-3.5902 2.3125,-5.162 1.06216,0.7485 2.31046,1.2847 3.6875,1.5642 -0.888941,1.563 -1.68766,3.1519 -2.21875,4.8178 -1.02928,3.2287 -1.179051,6.7316 1,11.4502 L 90,35.09312 79.78125,31.90202 c -2.61291,3.5052 -7.949489,6.1433 -14.28125,7.8837 -2.0352,0.5595 -4.21239,1.0442 -6.46875,1.4704 0.0662,-0.3784 0.125,-0.7635 0.125,-1.1575 0,-0.988 -0.23204,-1.9403 -0.625,-2.8156 2.08349,-0.3988 4.089472,-0.8686 5.9375,-1.3765 4.944271,-1.359 8.983012,-3.5084 11.0625,-5.3184 z"
     style="color:#000000;display:inline;overflow:visible;visibility:visible;fill:#67969e;stroke:none;enable-background:accumulate;fill-opacity:1"
     id="path1361" />
</svg>
