<?xml version="1.0" encoding="UTF-8" standalone="no"?>
<svg
   xmlns:dc="http://purl.org/dc/elements/1.1/"
   xmlns:cc="http://creativecommons.org/ns#"
   xmlns:rdf="http://www.w3.org/1999/02/22-rdf-syntax-ns#"
   xmlns:svg="http://www.w3.org/2000/svg"
   xmlns="http://www.w3.org/2000/svg"
   height="80"
   width="70"
   id="svg2304"
   xml:space="preserve"
   viewBox="0 0 70 80"
   y="0px"
   x="0px"
   version="1.2"><metadata
     id="metadata2310"><rdf:RDF><cc:Work
         rdf:about=""><dc:format>image/svg+xml</dc:format><dc:type
           rdf:resource="http://purl.org/dc/dcmitype/StillImage" /><dc:title></dc:title></cc:Work></rdf:RDF></metadata><defs
     id="defs2308" /><path
     style="fill:#72808a;fill-opacity:1"
     id="path2931"
     d="M 35,0 0,17.5 v 45 L 35,80 50,72.5 v -10 L 55,60 v 10 l 15,-7.5 v -45 z" /><path
     style="fill:#cfe5b5;fill-opacity:1"
     id="path2929"
     d="m 5,25 5,2.5 v 5 L 5,30 Z" /><path
     style="fill:#cfe5b5;fill-opacity:1"
     id="path2927"
     d="m 55,35 -5,2.5 v -5 L 55,30 Z" /><path
     style="fill:#cfe5b5;fill-opacity:1"
     id="path2925"
     d="m 55,45 -5,2.5 v -5 L 55,40 Z" /><path
     style="fill:#cfe5b5;fill-opacity:1"
     id="path2923"
     d="m 45,60 -5,2.5 v -5 L 45,55 Z" /><path
     style="fill:#cfe5b5;fill-opacity:1"
     id="path2921"
     d="m 15,50 5,2.5 v 5 L 15,55 Z" /><path
     style="fill:#cfe5b5;fill-opacity:1"
     id="path2919"
     d="m 15,40 5,2.5 v 5 L 15,45 Z" /><path
     style="fill:#cfe5b5;fill-opacity:1"
     id="path2917"
     d="M 30,52.5 25,50 v -5 l 5,2.5 z" /><path
     style="fill:#cfe5b5;fill-opacity:1"
     id="path2915"
     d="m 25,55 5,2.5 v 5 L 25,60 Z" /><path
     style="fill:#cfe5b5;fill-opacity:1"
     id="path2913"
     d="m 40,52.5 v -5 L 45,45 v 5 z" /><path
     style="fill:#cfe5b5;fill-opacity:1"
     id="path2911"
     d="m 45,40 -5,2.5 v -5 L 45,35 Z" /><path
     style="fill:#cfe5b5;fill-opacity:1"
     id="path2909"
     d="M 30,42.5 25,40 v -5 l 5,2.5 z" /><path
     style="fill:#cfe5b5;fill-opacity:1"
     id="path2907"
     d="M 20,37.5 15,35 v -5 l 5,2.5 z" /><path
     style="fill:#cfe5b5;fill-opacity:1"
     id="path2905"
     d="m 5,35 5,2.5 v 5 L 5,40 Z" /><path
     style="fill:#cfe5b5;fill-opacity:1"
     id="path2903"
     d="m 5,45 5,2.5 v 5 L 5,50 Z" /><path
     style="fill:#cfe5b5;fill-opacity:1"
     id="path2901"
     d="m 5,60 v -5 l 5,2.5 v 5 z" /><path
     style="fill:#cfe5b5;fill-opacity:1"
     id="path2899"
     d="m 15,65 v -5 l 5,2.5 v 5 z" /><path
     style="fill:#cfe5b5;fill-opacity:1"
     id="path2897"
     d="m 25,70 v -5 l 5,2.5 v 5 z" /><path
     style="fill:#cfe5b5;fill-opacity:1"
     id="path2895"
     d="m 45,70 -5,2.5 v -5 L 45,65 Z" /><path
     style="fill:#cfe5b5;fill-opacity:1"
     id="path2893"
     d="m 50,57.5 v -5 L 55,50 v 5 z" /><path
     style="fill:#cfe5b5;fill-opacity:1"
     id="path2891"
     d="m 65,60 -5,2.5 v -5 L 65,55 Z" /><path
     style="fill:#cfe5b5;fill-opacity:1"
     id="path2889"
     d="m 65,50 -5,2.5 v -5 L 65,45 Z" /><path
     style="fill:#cfe5b5;fill-opacity:1"
     id="path2887"
     d="m 65,40 -5,2.5 v -5 L 65,35 Z" /><path
     style="fill:#cfe5b5;fill-opacity:1"
     id="path2885"
     d="m 65,30 -5,2.5 v -5 L 65,25 Z" /><path
     style="fill:#cfe5b5;fill-opacity:1"
     id="path2298"
     d="M 35,35 5,20 35,5 65,20 Z" /></svg>