<?xml version="1.0" encoding="UTF-8" standalone="no"?>
<svg
   xmlns:dc="http://purl.org/dc/elements/1.1/"
   xmlns:cc="http://creativecommons.org/ns#"
   xmlns:rdf="http://www.w3.org/1999/02/22-rdf-syntax-ns#"
   xmlns:svg="http://www.w3.org/2000/svg"
   xmlns="http://www.w3.org/2000/svg"
   height="115.668"
   width="115.67"
   id="svg1291"
   xml:space="preserve"
   enable-background="new 0 0 139 139"
   viewBox="0 0 115.67 115.668"
   y="0px"
   x="0px"
   version="1.1"><metadata
     id="metadata1297"><rdf:RDF><cc:Work
         rdf:about=""><dc:format>image/svg+xml</dc:format><dc:type
           rdf:resource="http://purl.org/dc/dcmitype/StillImage" /><dc:title></dc:title><dc:creator><cc:Agent><dc:title>Chanut is Industries</dc:title></cc:Agent></dc:creator><dc:publisher><cc:Agent><dc:title>The Noun Project</dc:title></cc:Agent></dc:publisher></cc:Work></rdf:RDF></metadata><defs
     id="defs1295" /><path
     style="fill:#67969e;fill-opacity:1"
     id="path1285"
     d="M 57.834,0 C 25.893,0 0,25.894 0,57.834 c 0,31.94 25.893,57.834 57.834,57.834 31.939,0 57.836,-25.895 57.836,-57.834 C 115.67,25.893 89.773,0 57.834,0 Z M 42.785,31.416 55.012,19.19 c 0.801,-0.8 1.847,-1.197 2.894,-1.197 0.01,0 0.021,0 0.03,0 0.011,0 0.021,0 0.03,0 1.047,0 2.095,0.397 2.896,1.197 l 12.225,12.226 c 1.6,1.599 1.6,4.192 0,5.79 -0.799,0.8 -1.848,1.2 -2.895,1.2 -1.049,0 -2.096,-0.4 -2.895,-1.2 l -5.404,-5.403 v 12.438 8 1.499 c 0,2.262 -1.834,4.095 -4.096,4.095 -2.262,0 -4.094,-1.833 -4.094,-4.095 v -1.499 -8 -12.16 l -5.127,5.126 c -0.801,0.8 -1.848,1.2 -2.895,1.2 -1.049,0 -2.096,-0.4 -2.896,-1.2 -1.599,-1.599 -1.599,-4.193 0,-5.791 z m 46.502,49.289 c 0,5.527 -5.42,9.857 -12.34,9.857 H 38.725 c -6.919,0 -12.34,-4.33 -12.34,-9.857 V 54.098 c 0,-5.528 5.42,-9.858 12.34,-9.858 h 5.161 c 0.587,0.105 1.187,0.166 1.796,0.166 0.605,0 1.201,-0.062 1.785,-0.166 h 0.236 v 8 h -8.978 c -2.801,0 -4.34,1.396 -4.34,1.858 v 26.607 c 0,0.462 1.539,1.857 4.34,1.857 h 38.223 c 2.801,0 4.34,-1.396 4.34,-1.857 V 54.098 c 0,-0.462 -1.539,-1.858 -4.34,-1.858 h -9.055 v -8 h 0.554 c 0.571,0.099 1.152,0.166 1.745,0.166 0.609,0 1.208,-0.061 1.796,-0.166 h 4.96 c 6.92,0 12.34,4.331 12.34,9.858 v 26.607 z" /></svg>