<?xml version="1.0" encoding="UTF-8" standalone="no"?>
<svg
   xmlns:dc="http://purl.org/dc/elements/1.1/"
   xmlns:cc="http://creativecommons.org/ns#"
   xmlns:rdf="http://www.w3.org/1999/02/22-rdf-syntax-ns#"
   xmlns:svg="http://www.w3.org/2000/svg"
   xmlns="http://www.w3.org/2000/svg"
   height="62"
   width="62"
   id="svg1944"
   y="0px"
   x="0px"
   version="1.1"
   viewBox="0 0 62 62">
  <metadata
     id="metadata1950">
    <rdf:RDF>
      <cc:Work
         rdf:about="">
        <dc:format>image/svg+xml</dc:format>
        <dc:type
           rdf:resource="http://purl.org/dc/dcmitype/StillImage" />
        <dc:title></dc:title>
      </cc:Work>
    </rdf:RDF>
  </metadata>
  <defs
     id="defs1948">
    <clipPath
       id="clipPath5054"
       clipPathUnits="userSpaceOnUse">
      <path
         id="path5056"
         d="M 14.810019,96.564023 35.138647,74.65428 63.372852,76.461269 75.570029,68.555691 92.284678,96.112276 109.90282,74.428406 c 0,0 -1.58111,-42.012498 -1.80698,-42.915992 C 107.86996,30.608919 70.826682,0.56772451 70.826682,0.56772451 L 29.040058,3.7299556 -2.1305045,32.867656 -4.8409882,76.687142 7.8079361,91.36893 Z"
         style="fill:none;stroke:#000000;stroke-width:1.10013485px;stroke-linecap:butt;stroke-linejoin:miter;stroke-opacity:1" />
    </clipPath>
  </defs>
  <g
     transform="scale(0.4797377)"
     id="g996">
    <circle
       style="fill:#266726;fill-opacity:1;stroke:none;stroke-width:1.09909904"
       id="path3180-5"
       cx="64.618645"
       cy="64.618645"
       r="64.618645" />
    <circle
       style="fill:#00492c;fill-opacity:1;stroke:none"
       id="path3180-3"
       cx="64.618645"
       cy="64.618645"
       r="58.792374" />
    <g
       id="g4451"
       transform="matrix(0.90897943,0,0,0.90897943,17.403822,12.168101)"
       style="fill:#266726;fill-opacity:1"
       clip-path="url(#clipPath5054)">
      <path
         style="fill:#266726;fill-opacity:1;fill-rule:nonzero;stroke:none;stroke-width:1.86991465"
         d="m 51.942679,42.085824 c -8.326955,0 -15.098103,6.771137 -15.098103,15.098101 0,8.319658 6.771148,15.098099 15.098103,15.098099 8.319662,0 15.098103,-6.771135 15.098103,-15.098099 0,-8.326964 -6.778441,-15.098101 -15.098103,-15.098101 z m 0,21.430975 c -3.491486,0 -6.332878,-2.841393 -6.332878,-6.332874 0,-3.491482 2.841392,-6.332876 6.332878,-6.332876 3.491486,0 6.332877,2.841394 6.332877,6.332876 0,3.491481 -2.841391,6.332874 -6.332877,6.332874 z m 0,0"
         id="path3203" />
      <path
         style="fill:#266726;fill-opacity:1;fill-rule:nonzero;stroke:none;stroke-width:1.86991465"
         d="m 69.392779,85.860819 c 10.094622,-6.150265 16.11341,-16.865753 16.11341,-28.676894 0,-18.501931 -15.054272,-33.563509 -33.585426,-33.563509 l -0.613556,0.0073 c -18.465408,0 -32.928035,14.740188 -32.928035,33.556205 0,11.81114 6.026096,22.526629 16.113407,28.676894 0.482082,0.292174 1.000703,0.430957 1.519305,0.430957 0.986081,0 1.950265,-0.504 2.498094,-1.402436 0.840003,-1.380522 0.409044,-3.177394 -0.971477,-4.017395 -8.334284,-5.083831 -13.315849,-13.936707 -13.315849,-23.68802 0,-15.536362 11.898791,-27.712722 27.113763,-27.712722 l 0.613575,-0.0073 c 15.2807,0 27.720027,12.432011 27.720027,27.720026 0,9.751314 -4.974272,18.604189 -13.315849,23.68802 -1.380521,0.840001 -1.81148,2.636873 -0.971477,4.017396 0.832692,1.373218 2.629567,1.811479 4.010088,0.971478 z m 0,0"
         id="path3205" />
      <path
         style="fill:#266726;fill-opacity:1;fill-rule:nonzero;stroke:none;stroke-width:1.86991465"
         d="m 52.69502,5.5640517 h -1.504683 c -28.465075,0 -51.61987776,23.1548043 -51.61987776,51.6198733 0,17.961406 9.11583416,34.359683 24.38193376,43.855355 0.482083,0.29946 1.015308,0.43825 1.541221,0.43825 0.978788,0 1.92835,-0.4894 2.483471,-1.38052 0.854626,-1.365919 0.43096,-3.170093 -0.934957,-4.024702 C 13.499862,87.650386 5.4139427,73.114721 5.4066388,57.183925 c 0,-25.243849 20.5398502,-45.77639 45.7763872,-45.77639 h 1.511994 c 25.236556,0 45.769099,20.532541 45.769099,45.77639 0,15.930796 -8.085923,30.466461 -21.628201,38.888383 -1.365916,0.854609 -1.789564,2.658783 -0.934957,4.024702 0.854607,1.37321 2.651483,1.78225 4.024692,0.94227 C 95.191768,91.543608 104.3076,75.145331 104.31489,57.183925 104.31489,28.72616 81.152785,5.5640517 52.69502,5.5640517 Z m 0,0"
         id="path3207" />
    </g>
    <g
       transform="matrix(0.91593766,0,0,0.91593766,19.589875,-859.53573)"
       id="g1938"
       style="fill:#cfe5b5;fill-opacity:1">
      <path
         style="color:#000000;font-style:normal;font-variant:normal;font-weight:normal;font-stretch:normal;font-size:medium;line-height:normal;font-family:sans-serif;text-indent:0;text-align:start;text-decoration:none;text-decoration-line:none;text-decoration-style:solid;text-decoration-color:#000000;letter-spacing:normal;word-spacing:normal;text-transform:none;writing-mode:lr-tb;direction:ltr;baseline-shift:baseline;text-anchor:start;white-space:normal;clip-rule:nonzero;display:inline;overflow:visible;visibility:visible;opacity:1;isolation:auto;mix-blend-mode:normal;color-interpolation:sRGB;color-interpolation-filters:linearRGB;solid-color:#000000;solid-opacity:1;fill:#cfe5b5;fill-opacity:1;fill-rule:evenodd;stroke:none;stroke-width:25;stroke-linecap:round;stroke-linejoin:miter;stroke-miterlimit:4;stroke-dasharray:none;stroke-dashoffset:0;stroke-opacity:1;color-rendering:auto;image-rendering:auto;shape-rendering:auto;text-rendering:auto;enable-background:accumulate"
         d="m 44.091965,957.35605 c -5.07059,0 -9.19492,4.124 -9.19492,9.1947 0.002,5.1022 4.12568,9.1946 9.19492,9.1946 5.10223,0 9.23749,-4.0924 9.23749,-9.1946 0,-5.0707 -4.13526,-9.1947 -9.23749,-9.1947 z m -1.36937,21.0934 v 0 h -1.46028 1.49677 c -0.0121,0 -0.0243,0 -0.0365,0 z m -1.46028,0.01 c 0,0 -3e-4,0 -3e-4,0 -0.003,0 -0.006,0 -0.009,0 -0.007,0 -0.0132,0 -0.0201,0 -0.0134,-10e-5 -0.027,0 -0.0404,0 h -10e-4 -3e-4 l -2.4262,0.01 c -3.06182,10e-5 -6.50164,0.8108 -9.04838,2.1748 h 0.009 c -5.51798,3.0499 -9.17668,5.8012 -11.47245,9.617 -2.72193,4.524 -2.97295,9.6478 -2.95188,16.69295 -0.0233,2.0139 1.60584,3.6572 3.61984,3.6511 2.01404,-0.01 3.63362,-1.6593 3.59825,-3.673 -0.0204,-6.8116 0.37478,-10.38345 1.91877,-12.94975 1.17963,-1.9606 3.36679,-3.8607 7.475,-6.2673 l -3.31794,15.86055 -0.2794,1.3371 c -0.42354,2.0254 -0.141,3.5554 0.98963,5.3078 l 6.27558,9.727 1.4618,2.2657 0.31407,0.4871 3.504,5.4306 10.84705,16.8122 c 1.52448,2.44 4.75093,3.1605 7.16853,1.6008 2.41759,-1.5598 3.09088,-4.7964 1.49616,-7.1911 l -19.26608,-29.8613 1.75611,-7.33 1.28576,-5.36525 c 3.11078,5.64915 9.68776,7.81715 15.18654,9.19305 -0.13911,0.079 -0.27527,0.1621 -0.40619,0.2499 -0.54771,0.3673 -1.10843,0.8172 -1.23378,1.6305 -0.0968,0.6284 0.17535,1.2711 0.53328,1.6342 0.35793,0.3631 0.74761,0.5489 1.07872,0.7072 0.22828,0.1092 0.35962,0.1779 0.50287,0.2521 -0.093,0.078 -0.18971,0.1605 -0.32684,0.2386 -0.37217,0.212 -0.76069,0.3402 -0.76069,0.3402 a 0.93408829,0.93408829 0 1 0 0.56945,1.7789 c 0,0 0.54285,-0.1695 1.11581,-0.4958 0.28647,-0.1632 0.59226,-0.3662 0.86984,-0.6567 0.27759,-0.2906 0.54917,-0.7047 0.5801,-1.2396 0.038,-0.6564 -0.42965,-1.1681 -0.77954,-1.4031 -0.3499,-0.235 -0.68488,-0.3659 -0.96501,-0.4999 -0.28013,-0.1339 -0.49152,-0.2698 -0.55425,-0.3335 -0.0127,-0.013 -0.0191,-0.015 -0.0249,-0.017 -0.0104,0.021 -0.0186,-0.01 0,0 0.003,-0.01 0.005,-0.01 0.007,-0.021 -0.0154,0.1 0.0694,-0.1229 0.42839,-0.3636 0.35895,-0.2407 0.89512,-0.4967 1.43565,-0.7093 0.3529,-0.1389 0.69008,-0.253 1.00514,-0.3542 0.27862,0.057 0.55666,0.078 0.83001,0.07 l 4.50732,7.8067 a 1.8681766,1.8681766 0 0 0 1.62841,0.9525 l 14.10661,24.4332 a 2.4062713,2.4062713 0 0 0 -0.16753,2.6542 2.4062713,2.4062713 0 0 0 3.28692,0.8808 2.4062713,2.4062713 0 0 0 0.880792,-3.2869 2.4062713,2.4062713 0 0 0 -2.383932,-1.1842 l -14.10448,-24.4295 a 1.8681766,1.8681766 0 0 0 -0.0113,-1.8881 l -4.60674,-7.9785 c 0.11167,-0.2321 0.20088,-0.4794 0.26238,-0.7406 0.46154,-1.9601 -0.77006,-3.9189 -2.73661,-4.35225 -6.63049,-1.561 -10.01322,-2.7744 -12.15106,-4.8718 -1.11752,-1.0964 -2.20461,-2.6237 -3.04977,-4.9749 -0.84516,-2.3512 -1.24074,-4.9488 -1.99295,-7.2713 l -0.007,-0.024 h -0.002 c -0.76292,-2.3082 -2.96348,-4.0246 -5.43827,-4.0583 z m -14.44864,33.63105 -3.11666,14.9017 -10.1949,11.7738 c -1.91405,2.1475 -1.70045,5.446 0.4743,7.329 2.17471,1.8831 5.46977,1.6223 7.32146,-0.5792 l 11.09362,-12.812 c 0.58904,-0.6803 0.98971,-1.5029 1.16232,-2.3861 l 1.16719,-5.9718 z"
         id="path1936" />
    </g>
  </g>
</svg>
