<?xml version="1.0" encoding="UTF-8" standalone="no"?>
<svg
   xmlns:dc="http://purl.org/dc/elements/1.1/"
   xmlns:cc="http://creativecommons.org/ns#"
   xmlns:rdf="http://www.w3.org/1999/02/22-rdf-syntax-ns#"
   xmlns:svg="http://www.w3.org/2000/svg"
   xmlns="http://www.w3.org/2000/svg"
   height="95.155556"
   width="84.03463"
   id="svg889"
   xml:space="preserve"
   viewBox="0 0 84.03463 95.155556"
   y="0px"
   x="0px"
   version="1.1"><metadata
     id="metadata895"><rdf:RDF><cc:Work
         rdf:about=""><dc:format>image/svg+xml</dc:format><dc:type
           rdf:resource="http://purl.org/dc/dcmitype/StillImage" /><dc:title></dc:title></cc:Work></rdf:RDF></metadata><defs
     id="defs893" /><path
     id="path909"
     d="m 77.410988,32.255556 c 2.1,-8.5 -4.1,-14.3 -4.1,-14.3 -0.7,-6 -9.1,-6.6 -9.1,-6.6 -0.5,-9.2000004 -20.5,-9.8000004 -20.5,-9.8000004 0,0 -4.8,-3.5 -15.3,0 -6.7,2.2 -7.4,6.5 -7.1,9.3000004 -3.6,-1.2000004 -8,-0.9000004 -12.1,4 -5.8,7 -5.4,12.8 -3.5,17.3 -4.1,4 -9.3,12.5 -2.2,25.8 8,14.9 2.3,18.8 2.3,18.8 0,0 9.7,6.1 15.1,2.4 1,1.1 2.1,2.7 3.3,4.3 4.3,5.7 8.7,11.7 13.2,11.7 h 4.7 4.9 c 4.6,0 9,-5.9 13.2,-11.7 0.9,-1.3 1.8,-2.5 2.6,-3.5 16.4,-1.7 11,-8.3 18.6,-23.6 7.7,-15.6 -4,-24.1 -4,-24.1 z" /><path
     d="m 47.010988,92.855556 c -4.7,0 -4.7,0 -4.7,0 0,0 0,0 -4.7,0 -4.7,0 -10.9,-10.6 -15,-15.3 -0.4,-0.4 -0.7,-0.9 -1,-1.4 0.3,-0.3 0.6,-0.6 0.9,-0.9 1.2,-1.5 -1.1,-7 -2.9,-12.2 0,-0.6 0.1,-1 0.1,-1.4 2.3,1.8 5.9,2.4 9.8,2 5.4,-0.5 9.5,-5.1 10.5,-9.9 h 4.6 c 1,4.9 5.3,9.5 10.8,9.9 3.4,0.2 6.4,-0.2 8.7,-1.5 -1.9,5.4 -4.4,11.5 -3.2,13.1 0.5,0.7 1.1,1.2 1.8,1.5 -0.2,0.3 -0.4,0.6 -0.7,0.9 -0.1,0.2 -0.3,0.3 -0.4,0.5 0,0 -0.1,0.1 -0.1,0.1 -0.1,0.1 -0.2,0.3 -0.3,0.4 0,0 -0.1,0.1 -0.1,0.1 -0.1,0.2 -0.2,0.3 -0.4,0.5 0,0 0,0 0,0.1 -0.1,0.2 -0.3,0.4 -0.4,0.6 0,0 0,0 0,0 v 0 c -4.1,5 -9.3,12.9 -13.3,12.9 z m -27.8,-31.3 c -0.1,-0.3 -0.2,-0.5 -0.3,-0.8 0.2,0.2 0.3,0.3 0.5,0.5 0,0 0,0.1 -0.1,0.1 0,0.1 -0.1,0.2 -0.1,0.2 z m -6.5,-4.4 c -0.1,-0.2 -0.2,-0.4 -0.3,-0.7 0,-0.1 -0.1,-0.2 -0.1,-0.2 -0.1,-0.2 -0.1,-0.3 -0.2,-0.5 0,-0.1 -0.1,-0.2 -0.1,-0.3 -0.1,-0.2 -0.1,-0.3 -0.2,-0.5 0,-0.1 -0.1,-0.2 -0.1,-0.3 -0.1,-0.2 -0.1,-0.3 -0.2,-0.5 0,-0.1 -0.1,-0.1 -0.1,-0.2 -0.1,-0.2 -0.2,-0.5 -0.3,-0.7 0,0 0,-0.1 -0.1,-0.1 -0.1,-0.2 -0.1,-0.4 -0.2,-0.6 0,-0.1 -0.1,-0.2 -0.1,-0.2 -0.1,-0.2 -0.1,-0.3 -0.2,-0.4 0,-0.1 -0.1,-0.2 -0.1,-0.3 0,-0.1 -0.1,-0.3 -0.1,-0.4 0,-0.1 0,-0.2 -0.1,-0.2 -0.1,-0.2 -0.1,-0.3 -0.2,-0.5 0,0 0,-0.1 0,-0.1 -0.1,-0.2 -0.1,-0.4 -0.2,-0.6 0,-0.1 0,-0.1 0,-0.2 0,-0.1 -0.1,-0.3 -0.1,-0.4 0,-0.1 0,-0.1 -0.1,-0.2 0,-0.1 -0.1,-0.2 -0.1,-0.4 0,-0.1 0,-0.1 -0.1,-0.2 0,-0.1 -0.1,-0.2 -0.1,-0.3 0,-0.1 0,-0.1 0,-0.2 0,-0.2 -0.1,-0.3 -0.1,-0.5 0,0 0,-0.1 0,-0.1 1.8,0 2.2,1 3.3,5.4 0.4,1.4 0.4,3.1 0.3,5 0.1,-0.2 0,-0.4 -0.1,-0.6 0.1,0 0,0 0,0 z m 44,-12.7 c -2.5,-0.2 -4.8,-0.1 -6.8,0.3 h -14.8 c -2.1,-0.6 -4.6,-0.6 -7.4,-0.3 -4.6,0.4 -8.6,1.5 -10.1,5.4 0,-4.1 0.1,-8.2 0.1,-10.8 0,-3.8 3.8,-12.1 4,-12.7 0,0 0,0 0,-0.1 0.6,-0.8 1.1,-1.6 1.6,-2.4 0.6,-0.8 1.3,-1.5 2.1,-2 1.9,1.6 4.2,3.1 6.7,4.3 3.6,3 10.3,6.8 23,10 0,0 3.5,1.4 5,4.2 0,0 3.5,-2.4 2,-8.2 0.5,0 1.1,-0.1 1.6,-0.1 0.9,1.9 2.1,4.7 2.1,7 0,2.2 0.1,5.4 0.1,8.7 -2.1,-2.4 -5.5,-3 -9.2,-3.3 z m -12.4,7.3 h -4.1 l -0.1,-0.1 c 0,-0.4 0,-0.7 0,-1.1 -0.2,-1.7 -0.7,-3 -1.6,-3.9 h 7.6 c -1,1 -1.6,2.4 -1.7,4.2 0,0.4 0,0.6 -0.1,0.9 z m 30.7,-3.9 c 0,0.1 0,0.1 0,0.2 0,0.1 -0.1,0.2 -0.1,0.3 0,0.1 0,0.1 -0.1,0.2 0,0.1 -0.1,0.2 -0.1,0.4 0,0.1 0,0.1 -0.1,0.2 0,0.1 -0.1,0.3 -0.1,0.4 0,0.1 0,0.1 0,0.2 -0.1,0.2 -0.1,0.4 -0.2,0.6 0,0 0,0.1 0,0.1 -0.1,0.2 -0.1,0.4 -0.2,0.5 0,0.1 0,0.1 -0.1,0.2 0,0.2 -0.1,0.3 -0.1,0.5 0,0.1 -0.1,0.2 -0.1,0.2 -0.1,0.2 -0.1,0.3 -0.2,0.5 0,0.1 -0.1,0.2 -0.1,0.2 -0.1,0.2 -0.1,0.4 -0.2,0.6 0,0 0,0.1 0,0.1 -0.1,0.2 -0.2,0.5 -0.3,0.7 0,0.1 0,0.1 -0.1,0.2 -0.1,0.2 -0.1,0.4 -0.2,0.5 0,0.1 -0.1,0.2 -0.1,0.2 -0.1,0.2 -0.1,0.3 -0.2,0.5 0,0.1 -0.1,0.2 -0.1,0.2 -0.1,0.2 -0.1,0.3 -0.2,0.5 0,0.1 -0.1,0.1 -0.1,0.2 -0.1,0.2 -0.2,0.5 -0.3,0.7 0,0 0,0 0,0 -0.1,0.2 -0.2,0.4 -0.3,0.6 0,0.1 -0.1,0.1 -0.1,0.2 -0.1,0.1 -0.2,0.3 -0.2,0.4 0,0.1 -0.1,0.1 -0.1,0.2 -0.1,0.1 -0.2,0.3 -0.2,0.4 0,0.1 -0.1,0.1 -0.1,0.2 -0.1,0.1 -0.1,0.2 -0.2,0.3 -0.2,-2.5 -0.4,-5 0.1,-6.8 1.3,-5.2 1.6,-5.7 4.5,-5.4 0,0 0,0 0,0.1 0,0.4 -0.1,0.6 -0.1,0.7 z"
     style="fill:#ffb380"
     id="path875" /><rect
     style="fill:#000000;stroke-width:0.99997461"
     id="rect877"
     height="11.699702"
     width="1.8999517"
     transform="rotate(-99.555576)"
     y="24.192181"
     x="-81.809258" /><rect
     style="fill:#000000"
     id="rect879"
     height="1.2"
     width="4.5"
     y="78.655556"
     x="40.810986" /></svg>