<?xml version="1.0" encoding="UTF-8" standalone="no"?>
<svg
   xmlns:dc="http://purl.org/dc/elements/1.1/"
   xmlns:cc="http://creativecommons.org/ns#"
   xmlns:rdf="http://www.w3.org/1999/02/22-rdf-syntax-ns#"
   xmlns:svg="http://www.w3.org/2000/svg"
   xmlns="http://www.w3.org/2000/svg"
   height="115.669"
   width="115.669"
   id="svg2075"
   xml:space="preserve"
   enable-background="new 0 0 139 139"
   viewBox="0 0 115.669 115.669"
   y="0px"
   x="0px"
   version="1.1"><metadata
     id="metadata2081"><rdf:RDF><cc:Work
         rdf:about=""><dc:format>image/svg+xml</dc:format><dc:type
           rdf:resource="http://purl.org/dc/dcmitype/StillImage" /><dc:title></dc:title><dc:creator><cc:Agent><dc:title>Chanut is Industries</dc:title></cc:Agent></dc:creator><dc:publisher><cc:Agent><dc:title>The Noun Project</dc:title></cc:Agent></dc:publisher></cc:Work></rdf:RDF></metadata><defs
     id="defs2079" /><path
     style="fill:#67969e;fill-opacity:1"
     id="path2069"
     d="M 57.833,0 C 25.893,0 0,25.894 0,57.834 c 0,31.939 25.893,57.835 57.833,57.835 31.94,0 57.836,-25.896 57.836,-57.835 C 115.669,25.894 89.773,0 57.833,0 Z M 42.785,40.622 c 0.8,-0.8 1.848,-1.2 2.896,-1.2 1.048,0 2.095,0.4 2.895,1.2 l 5.127,5.126 V 44.24 24.089 c 0,-2.262 1.833,-4.095 4.095,-4.095 2.262,0 4.095,1.833 4.095,4.095 v 20.151 1.785 l 1.785,-1.785 v 0 l 3.619,-3.618 c 0.8,-0.8 1.847,-1.2 2.895,-1.2 1.048,0 2.096,0.4 2.896,1.2 0.984,0.983 1.358,2.344 1.131,3.618 v 0 c 0,10e-4 -10e-4,0.002 -10e-4,0.003 -0.017,0.092 -0.046,0.181 -0.069,0.271 -0.035,0.141 -0.073,0.281 -0.124,0.418 -0.034,0.092 -0.073,0.182 -0.114,0.272 -0.064,0.143 -0.138,0.28 -0.219,0.416 -0.043,0.072 -0.083,0.144 -0.131,0.213 -0.14,0.202 -0.293,0.398 -0.473,0.578 l -5.828,5.828 -6.397,6.397 c -0.801,0.8 -1.848,1.197 -2.895,1.197 -0.01,0 -0.02,0 -0.03,0 -0.01,0 -0.021,0 -0.03,0 -1.047,0 -2.094,-0.397 -2.895,-1.197 l -6.397,-6.397 -5.828,-5.828 c -0.18,-0.18 -0.333,-0.375 -0.471,-0.577 -0.049,-0.071 -0.089,-0.144 -0.133,-0.216 -0.08,-0.135 -0.153,-0.271 -0.217,-0.412 -0.042,-0.092 -0.082,-0.183 -0.116,-0.277 -0.049,-0.134 -0.086,-0.27 -0.121,-0.407 -0.024,-0.095 -0.055,-0.187 -0.072,-0.283 0,0 0,0 0,0 v 0 c -0.231,-1.273 0.142,-2.634 1.127,-3.617 z m 46.501,40.083 c 0,5.528 -5.42,9.858 -12.34,9.858 H 38.724 c -6.919,0 -12.34,-4.33 -12.34,-9.858 V 54.099 c 0,-4.672 3.878,-8.478 9.255,-9.547 0.233,2.306 1.243,4.444 2.905,6.105 l 1.584,1.584 h -1.404 c -2.801,0 -4.34,1.396 -4.34,1.858 v 26.606 c 0,0.463 1.539,1.858 4.34,1.858 h 38.223 c 2.801,0 4.34,-1.396 4.34,-1.858 V 54.099 c 0,-0.462 -1.539,-1.858 -4.34,-1.858 h -1.203 l 1.585,-1.585 c 1.651,-1.65 2.658,-3.773 2.898,-6.064 5.275,1.123 9.06,4.893 9.06,9.508 v 26.605 z" /></svg>