<?xml version="1.0" encoding="UTF-8" standalone="no"?>
<svg
   version="1.1"
   x="0px"
   y="0px"
   viewBox="0 0 115.669 115.669"
   enable-background="new 0 0 139 139"
   xml:space="preserve"
   id="svg2075"
   width="115.669"
   height="115.669"
   xmlns="http://www.w3.org/2000/svg"
   xmlns:svg="http://www.w3.org/2000/svg"
   xmlns:rdf="http://www.w3.org/1999/02/22-rdf-syntax-ns#"
   xmlns:cc="http://creativecommons.org/ns#"
   xmlns:dc="http://purl.org/dc/elements/1.1/"><metadata
     id="metadata2081"><rdf:RDF><cc:Work
         rdf:about=""><dc:format>image/svg+xml</dc:format><dc:type
           rdf:resource="http://purl.org/dc/dcmitype/StillImage" /><dc:creator><cc:Agent><dc:title>Chanut is Industries</dc:title></cc:Agent></dc:creator><dc:publisher><cc:Agent><dc:title>The Noun Project</dc:title></cc:Agent></dc:publisher></cc:Work></rdf:RDF></metadata><defs
     id="defs2079"><symbol
       id="u"
       overflow="visible"><path
         d="m9.375-0.5625c-0.48047 0.25-0.98438 0.4375-1.5156 0.5625-0.52344 0.13281-1.0625 0.20312-1.625 0.20312-1.7109 0-3.0586-0.47266-4.0469-1.4219-0.99219-0.95703-1.4844-2.25-1.4844-3.875 0-1.6328 0.49219-2.9258 1.4844-3.875 0.98828-0.94531 2.3359-1.4219 4.0469-1.4219 0.5625 0 1.1016 0.0625 1.625 0.1875 0.53125 0.125 1.0352 0.32031 1.5156 0.57812v2.1094c-0.49219-0.33203-0.97656-0.57812-1.4531-0.73438-0.46875-0.15625-0.96484-0.23438-1.4844-0.23438-0.9375 0-1.6797 0.30469-2.2188 0.90625-0.53125 0.60547-0.79688 1.4336-0.79688 2.4844 0 1.0547 0.26562 1.8828 0.79688 2.4844 0.53906 0.60547 1.2812 0.90625 2.2188 0.90625 0.51953 0 1.0156-0.078125 1.4844-0.23438 0.47656-0.15625 0.96094-0.39844 1.4531-0.73438z"
         id="path1002" /></symbol><symbol
       id="b"
       overflow="visible"><path
         d="m6.8594-5.5781c-0.21094-0.09375-0.42188-0.16016-0.64062-0.20312-0.21094-0.050781-0.42188-0.078125-0.64062-0.078125-0.625 0-1.1094 0.20312-1.4531 0.60938-0.33594 0.39844-0.5 0.96875-0.5 1.7188v3.5312h-2.4531v-7.6562h2.4531v1.25c0.3125-0.5 0.67188-0.86328 1.0781-1.0938 0.40625-0.22656 0.89453-0.34375 1.4688-0.34375 0.082031 0 0.17188 0.007812 0.26562 0.015625 0.09375 0 0.23438 0.015625 0.42188 0.046875z"
         id="path1005" /></symbol><symbol
       id="a"
       overflow="visible"><path
         d="m8.8125-3.8438v0.6875h-5.7188c0.0625 0.57422 0.26953 1.0078 0.625 1.2969 0.35156 0.29297 0.84766 0.4375 1.4844 0.4375 0.51953 0 1.0508-0.078125 1.5938-0.23438 0.53906-0.15625 1.0938-0.39062 1.6562-0.70312v1.8906c-0.57422 0.21875-1.1523 0.38672-1.7344 0.5-0.57422 0.11328-1.1523 0.17188-1.7344 0.17188-1.3867 0-2.4648-0.35156-3.2344-1.0625-0.76172-0.70703-1.1406-1.6953-1.1406-2.9688 0-1.2383 0.375-2.2188 1.125-2.9375s1.7852-1.0781 3.1094-1.0781c1.207 0 2.1719 0.36719 2.8906 1.0938 0.71875 0.71875 1.0781 1.6875 1.0781 2.9062zm-2.5156-0.8125c0-0.46875-0.13672-0.84375-0.40625-1.125-0.27344-0.28906-0.625-0.4375-1.0625-0.4375-0.46875 0-0.85547 0.13672-1.1562 0.40625-0.29297 0.26172-0.47656 0.64844-0.54688 1.1562z"
         id="path1008" /></symbol><symbol
       id="e"
       overflow="visible"><path
         d="m4.6094-3.4531c-0.51172 0-0.89844 0.089844-1.1562 0.26562-0.26172 0.17969-0.39062 0.43359-0.39062 0.76562 0 0.3125 0.10156 0.55859 0.3125 0.73438 0.20703 0.17969 0.5 0.26562 0.875 0.26562 0.45703 0 0.84375-0.16406 1.1562-0.5 0.3125-0.33203 0.46875-0.75 0.46875-1.25v-0.28125zm3.7344-0.92188v4.375h-2.4688v-1.1406c-0.32422 0.46875-0.69531 0.8125-1.1094 1.0312-0.40625 0.20703-0.90234 0.3125-1.4844 0.3125-0.80469 0-1.4492-0.22656-1.9375-0.6875-0.49219-0.46875-0.73438-1.0703-0.73438-1.8125 0-0.89453 0.30469-1.5508 0.92188-1.9688 0.61328-0.42578 1.582-0.64062 2.9062-0.64062h1.4375v-0.1875c0-0.38281-0.15234-0.66406-0.45312-0.84375-0.30469-0.1875-0.77734-0.28125-1.4219-0.28125-0.53125 0-1.0234 0.054688-1.4688 0.15625-0.44922 0.10547-0.87109 0.26562-1.2656 0.48438v-1.875c0.53125-0.125 1.0547-0.21875 1.5781-0.28125 0.53125-0.070313 1.0625-0.10938 1.5938-0.10938 1.3828 0 2.3789 0.27734 2.9844 0.82812 0.61328 0.54297 0.92188 1.4219 0.92188 2.6406z"
         id="path1011" /></symbol><symbol
       id="d"
       overflow="visible"><path
         d="m3.8438-9.8281v2.1719h2.5312v1.75h-2.5312v3.25c0 0.35547 0.066406 0.59375 0.20312 0.71875 0.14453 0.125 0.42969 0.1875 0.85938 0.1875h1.25v1.75h-2.0938c-0.96875 0-1.6562-0.19531-2.0625-0.59375-0.39844-0.40625-0.59375-1.0938-0.59375-2.0625v-3.25h-1.2188v-1.75h1.2188v-2.1719z"
         id="path1014" /></symbol><symbol
       id="h"
       overflow="visible"><path
         d="m6.3906-6.5312v-4.1094h2.4531v10.641h-2.4531v-1.1094c-0.34375 0.44922-0.71875 0.78125-1.125 1-0.40625 0.20703-0.875 0.3125-1.4062 0.3125-0.9375 0-1.7148-0.375-2.3281-1.125-0.60547-0.75-0.90625-1.7188-0.90625-2.9062 0-1.1758 0.30078-2.1406 0.90625-2.8906 0.61328-0.75 1.3906-1.125 2.3281-1.125 0.53125 0 1 0.10938 1.4062 0.32812 0.40625 0.21094 0.78125 0.53906 1.125 0.98438zm-1.625 4.9531c0.53125 0 0.92969-0.19141 1.2031-0.57812 0.28125-0.38281 0.42188-0.94141 0.42188-1.6719 0-0.72656-0.14062-1.2812-0.42188-1.6562-0.27344-0.38281-0.67188-0.57812-1.2031-0.57812-0.51172 0-0.90625 0.19531-1.1875 0.57812-0.27344 0.375-0.40625 0.92969-0.40625 1.6562 0 0.73047 0.13281 1.2891 0.40625 1.6719 0.28125 0.38672 0.67578 0.57812 1.1875 0.57812z"
         id="path1017" /></symbol><symbol
       id="m"
       overflow="visible"><path
         d="m5.25-1.5781c0.51953 0 0.91406-0.19141 1.1875-0.57812 0.28125-0.38281 0.42188-0.94141 0.42188-1.6719 0-0.72656-0.14062-1.2812-0.42188-1.6562-0.27344-0.38281-0.66797-0.57812-1.1875-0.57812-0.52344 0-0.92188 0.19531-1.2031 0.57812-0.28125 0.38672-0.42188 0.9375-0.42188 1.6562 0 0.73047 0.14062 1.2891 0.42188 1.6719 0.28125 0.38672 0.67969 0.57812 1.2031 0.57812zm-1.625-4.9531c0.33203-0.44531 0.70312-0.77344 1.1094-0.98438 0.41406-0.21875 0.89062-0.32812 1.4219-0.32812 0.94531 0 1.7227 0.375 2.3281 1.125 0.60156 0.75 0.90625 1.7148 0.90625 2.8906 0 1.1875-0.30469 2.1562-0.90625 2.9062-0.60547 0.75-1.3828 1.125-2.3281 1.125-0.53125 0-1.0078-0.10547-1.4219-0.3125-0.40625-0.21875-0.77734-0.55078-1.1094-1v1.1094h-2.4531v-10.641h2.4531z"
         id="path1020" /></symbol><symbol
       id="l"
       overflow="visible"><path
         d="m0.17188-7.6562h2.4531l2.0469 5.1875 1.75-5.1875h2.4531l-3.2188 8.375c-0.32422 0.85156-0.70312 1.4453-1.1406 1.7812-0.42969 0.34375-0.99609 0.51562-1.7031 0.51562h-1.4062v-1.5938h0.76562c0.41406 0 0.71875-0.070313 0.90625-0.20312 0.1875-0.13672 0.33203-0.375 0.4375-0.71875l0.0625-0.20312z"
         id="path1023" /></symbol><symbol
       id="g"
       overflow="visible"><path
         d="m1.2812-10.203h3.3594l2.3125 5.4531 2.3438-5.4531h3.3438v10.203h-2.4844v-7.4688l-2.3594 5.5h-1.6719l-2.3438-5.5v7.4688h-2.5z"
         id="path1026" /></symbol><symbol
       id="c"
       overflow="visible"><path
         d="m4.8125-6.0938c-0.54297 0-0.95312 0.19922-1.2344 0.59375-0.28125 0.38672-0.42188 0.94531-0.42188 1.6719 0 0.74219 0.14062 1.3086 0.42188 1.7031 0.28125 0.38672 0.69141 0.57812 1.2344 0.57812 0.53906 0 0.95312-0.19141 1.2344-0.57812 0.28125-0.39453 0.42188-0.96094 0.42188-1.7031 0-0.72656-0.14062-1.2852-0.42188-1.6719-0.28125-0.39453-0.69531-0.59375-1.2344-0.59375zm0-1.75c1.3203 0 2.3516 0.35938 3.0938 1.0781 0.73828 0.71094 1.1094 1.6875 1.1094 2.9375 0 1.2617-0.37109 2.25-1.1094 2.9688-0.74219 0.71094-1.7734 1.0625-3.0938 1.0625-1.3125 0-2.3438-0.35156-3.0938-1.0625-0.74219-0.71875-1.1094-1.707-1.1094-2.9688 0-1.25 0.36719-2.2266 1.1094-2.9375 0.75-0.71875 1.7812-1.0781 3.0938-1.0781z"
         id="path1029" /></symbol><symbol
       id="f"
       overflow="visible"><path
         d="m8.875-4.6562v4.6562h-2.4688v-3.5625c0-0.66406-0.015625-1.125-0.046875-1.375-0.023437-0.25-0.070313-0.42969-0.14062-0.54688-0.09375-0.16406-0.22656-0.28906-0.39062-0.375-0.16797-0.09375-0.35547-0.14062-0.5625-0.14062-0.51172 0-0.91406 0.19922-1.2031 0.59375-0.29297 0.39844-0.4375 0.94531-0.4375 1.6406v3.7656h-2.4531v-7.6562h2.4531v1.125c0.36328-0.44531 0.75391-0.77344 1.1719-0.98438 0.41406-0.21875 0.875-0.32812 1.375-0.32812 0.88281 0 1.5547 0.27344 2.0156 0.8125 0.45703 0.54297 0.6875 1.3359 0.6875 2.375z"
         id="path1032" /></symbol><symbol
       id="t"
       overflow="visible"><path
         d="m1.1719-7.6562h2.4531v7.6562h-2.4531zm0-2.9844h2.4531v2h-2.4531z"
         id="path1035" /></symbol><symbol
       id="k"
       overflow="visible"><path
         d="m1.0938-2.9844v-4.6719h2.4688v0.76562c0 0.41797-0.007812 0.9375-0.015625 1.5625v1.25c0 0.61719 0.015625 1.0586 0.046875 1.3281 0.03125 0.27344 0.082031 0.46875 0.15625 0.59375 0.10156 0.15625 0.23438 0.28125 0.39062 0.375 0.16406 0.085938 0.35156 0.125 0.5625 0.125 0.50781 0 0.91016-0.19141 1.2031-0.57812 0.28906-0.39453 0.4375-0.94141 0.4375-1.6406v-3.7812h2.4531v7.6562h-2.4531v-1.1094c-0.36719 0.44922-0.75781 0.78125-1.1719 1-0.41797 0.20703-0.87109 0.3125-1.3594 0.3125-0.88672 0-1.5625-0.26953-2.0312-0.8125-0.46094-0.53906-0.6875-1.332-0.6875-2.375z"
         id="path1038" /></symbol><symbol
       id="j"
       overflow="visible"><path
         d="m0.79688-7.6562h6.6875v1.7031l-4.0312 4.2031h4.0312v1.75h-6.8594v-1.7031l4.0312-4.2031h-3.8594z"
         id="path1041" /></symbol><symbol
       id="i"
       overflow="visible"><path
         d="m8.2656-6.3906c0.3125-0.46875 0.67969-0.82812 1.1094-1.0781 0.42578-0.25 0.89453-0.375 1.4062-0.375 0.875 0 1.5391 0.27344 2 0.8125 0.46875 0.54297 0.70312 1.3359 0.70312 2.375v4.6562h-2.4688v-4c0.007813-0.050781 0.015625-0.10938 0.015625-0.17188v-0.28125c0-0.53906-0.078125-0.92969-0.23438-1.1719-0.15625-0.25-0.41797-0.375-0.78125-0.375-0.46094 0-0.82031 0.19531-1.0781 0.57812-0.25 0.38672-0.38281 0.9375-0.39062 1.6562v3.7656h-2.4531v-4c0-0.84375-0.074219-1.3828-0.21875-1.625-0.14844-0.25-0.40625-0.375-0.78125-0.375-0.46875 0-0.83594 0.19531-1.0938 0.57812-0.25 0.38672-0.375 0.9375-0.375 1.6562v3.7656h-2.4688v-7.6562h2.4688v1.125c0.30078-0.4375 0.64453-0.76562 1.0312-0.98438 0.39453-0.21875 0.82812-0.32812 1.2969-0.32812 0.51953 0 0.98438 0.13281 1.3906 0.39062 0.40625 0.25 0.71094 0.60547 0.92188 1.0625z"
         id="path1044" /></symbol><symbol
       id="s"
       overflow="visible"><path
         d="m6.2188-10.641v1.6094h-1.3594c-0.34375 0-0.58594 0.0625-0.71875 0.1875-0.13672 0.125-0.20312 0.34375-0.20312 0.65625v0.53125h2.0781v1.75h-2.0781v5.9062h-2.4531v-5.9062h-1.2188v-1.75h1.2188v-0.53125c0-0.83203 0.22656-1.4453 0.6875-1.8438 0.46875-0.40625 1.1914-0.60938 2.1719-0.60938z"
         id="path1047" /></symbol><symbol
       id="r"
       overflow="visible"><path
         d="m8.875-4.6562v4.6562h-2.4688v-3.5625c0-0.66406-0.015625-1.125-0.046875-1.375-0.023437-0.25-0.070313-0.42969-0.14062-0.54688-0.09375-0.16406-0.22656-0.28906-0.39062-0.375-0.16797-0.09375-0.35547-0.14062-0.5625-0.14062-0.51172 0-0.91406 0.19922-1.2031 0.59375-0.29297 0.39844-0.4375 0.94531-0.4375 1.6406v3.7656h-2.4531v-10.641h2.4531v4.1094c0.36328-0.44531 0.75391-0.77344 1.1719-0.98438 0.41406-0.21875 0.875-0.32812 1.375-0.32812 0.88281 0 1.5547 0.27344 2.0156 0.8125 0.45703 0.54297 0.6875 1.3359 0.6875 2.375z"
         id="path1050" /></symbol><symbol
       id="q"
       overflow="visible"><path
         d="m1.2812-10.203h2.9375l3.7188 7v-7h2.5v10.203h-2.9375l-3.7188-7v7h-2.5z"
         id="path1053" /></symbol><symbol
       id="p"
       overflow="visible"><path
         d="m1.2812-10.203h4.375c1.3008 0 2.2969 0.28906 2.9844 0.85938 0.69531 0.57422 1.0469 1.3984 1.0469 2.4688 0 1.0742-0.35156 1.8984-1.0469 2.4688-0.6875 0.57422-1.6836 0.85938-2.9844 0.85938h-1.7344v3.5469h-2.6406zm2.6406 1.9062v2.8438h1.4531c0.50781 0 0.89844-0.11719 1.1719-0.35938 0.28125-0.25 0.42188-0.60156 0.42188-1.0625 0-0.45703-0.14062-0.80469-0.42188-1.0469-0.27344-0.25-0.66406-0.375-1.1719-0.375z"
         id="path1056" /></symbol><symbol
       id="o"
       overflow="visible"><path
         d="m1.1719-7.6562h2.4531v7.5156c0 1.0312-0.25 1.8125-0.75 2.3438-0.49219 0.53906-1.1992 0.8125-2.125 0.8125h-1.2188v-1.5938h0.42188c0.46875 0 0.78516-0.10938 0.95312-0.32812 0.17578-0.21094 0.26562-0.62109 0.26562-1.2344zm0-2.9844h2.4531v2h-2.4531z"
         id="path1059" /></symbol><symbol
       id="n"
       overflow="visible"><path
         d="m7.3594-7.4219v2c-0.33594-0.22656-0.66797-0.39453-1-0.5-0.33594-0.11328-0.68359-0.17188-1.0469-0.17188-0.67969 0-1.2109 0.20312-1.5938 0.60938-0.375 0.39844-0.5625 0.94922-0.5625 1.6562 0 0.71875 0.1875 1.2812 0.5625 1.6875 0.38281 0.39844 0.91406 0.59375 1.5938 0.59375 0.38281 0 0.75-0.054687 1.0938-0.17188 0.34375-0.11328 0.66016-0.28516 0.95312-0.51562v2.0156c-0.38672 0.13672-0.77734 0.23828-1.1719 0.3125-0.38672 0.070312-0.77734 0.10938-1.1719 0.10938-1.3867 0-2.4688-0.35156-3.25-1.0625-0.77344-0.70703-1.1562-1.6953-1.1562-2.9688 0-1.2578 0.38281-2.2422 1.1562-2.9531 0.78125-0.70703 1.8633-1.0625 3.25-1.0625 0.39453 0 0.78516 0.039062 1.1719 0.10938 0.39453 0.074219 0.78516 0.17969 1.1719 0.3125z"
         id="path1062" /></symbol></defs><path
     style="fill:#67969e;fill-opacity:1"
     d="M 57.832031,0 C 25.892031,0 0,25.893984 0,57.833984 c 0,31.939 25.892031,57.835936 57.832031,57.835936 31.94,0 57.837889,-25.896936 57.837889,-57.835936 C 115.66992,25.893984 89.772031,0 57.832031,0 Z"
     id="path1463" /><g
     id="g1499"
     transform="matrix(0.18893111,0,0,0.18893111,-1.744247,71.533519)"
     style="fill:#ffffff"><path
       d="m 178.03043,-265.70575 h 200.78666 v -18.66667 H 168.6971 c -5.15107,0 -9.32813,4.17707 -9.33333,9.33334 v 167.02666 h 18.66666 z"
       id="path1067"
       style="fill:#ffffff;stroke-width:1.33333" /><path
       d="m 481.17709,-215.26575 c -0.26041,-0.41146 -64.66133,-66.93733 -65.036,-67.24 -1.63026,-1.21355 -3.60933,-1.86453 -5.64066,-1.86453 h -22.364 l 0.005,87.77066 c 0,5.15107 4.17707,9.32813 9.33333,9.33333 h 85.38 v -22.66133 c 0,-1.91147 -0.58855,-3.776 -1.67707,-5.33853 z"
       id="path1069"
       style="fill:#ffffff;stroke-width:1.33333" /><path
       d="M 464.19042,120.69424 H 178.03043 V 52.563574 h -18.66666 v 77.469336 -0.005 c 0.005,5.15627 4.18226,9.33334 9.33333,9.33334 h 304.82666 c 2.4792,0.005 4.85413,-0.97396 6.60413,-2.724 1.7552,-1.7552 2.7344,-4.13027 2.7292,-6.60934 v -307.95999 h -18.66667 z"
       id="path1071"
       style="fill:#ffffff;stroke-width:1.33333" /><path
       d="m 267.4571,-46.11909 c -9.67187,0 -13.10414,10.093733 -13.10414,18.734666 0,8.687467 4.07294,18.0413331 13.0156,18.0413331 9.05214,0 13.10414,-9.3645331 13.10414,-18.6453331 0,-6.2708 -2.7188,-18.130666 -13.0156,-18.130666 z"
       id="path1073"
       style="fill:#ffffff;stroke-width:1.33333" /><path
       d="M 397.25709,33.894241 V -89.345756 c -0.005,-5.151066 -4.18226,-9.328133 -9.33333,-9.333333 H 114.83043 c -5.15626,0.0053 -9.33333,4.182267 -9.33333,9.333333 V 33.894241 c 0,5.151067 4.17707,9.328133 9.33333,9.333333 h 273.09333 c 5.15107,-0.0053 9.32813,-4.182266 9.33333,-9.333333 z M 181.72376,-18.329757 c 0,22.4999991 -14.57866,25.859999 -23.26533,25.859999 -3.474,-0.00533 -6.91666,-0.6145867 -10.18226,-1.8073333 -2.44787,-1.0052133 -3.85934,-3.5885332 -3.38027,-6.1926665 l 1.125,-6.1458665 c 0.30208,-1.6406666 1.32292,-3.0625333 2.7812,-3.8802667 1.4584,-0.812493 3.20307,-0.932293 4.7604,-0.32812 1.36973,0.5 2.82293,0.755213 4.2864,0.744787 2.9844,0 5.14066,0 5.14066,-8.864533 V -57.38109 c 0,-3.093733 2.5052,-5.598933 5.59894,-5.598933 h 7.5312 c 3.09373,0 5.59893,2.5052 5.60413,5.598933 z m 24.71867,26.291999 c -6.31253,0.078133 -12.526,-1.5312 -18,-4.6614666 -2.05213,-1.3697333 -2.9636,-3.91666653 -2.2552,-6.2759998 l 1.90107,-6.3177332 h 0.005 c 0.5,-1.6666664 1.7448,-3.0052004 3.36973,-3.6197334 1.62507,-0.619786 3.44787,-0.44792 4.92707,0.463547 3.19787,1.911466 6.84373,2.9374664 10.57293,2.9791998 3.0156,0 6.60934,-0.7552138 6.60934,-4.3593328 0,-1.7344 0,-3.526 -7.40627,-6.374934 -12.56773,-4.453066 -19.00533,-11.796933 -19.00533,-21.770666 0,-12.427066 10.29693,-21.442666 24.47866,-21.442666 5.43747,-0.135413 10.82294,1.093747 15.66134,3.588533 2.33853,1.32292 3.40106,4.119734 2.5416,6.666667 l -2.07814,6.145866 c -0.53125,1.567734 -1.724,2.822934 -3.2656,3.421867 -1.5416,0.60416 -3.2708,0.494787 -4.724,-0.30208 -2.58333,-1.374933 -5.4688,-2.093733 -8.40106,-2.083333 -3.38027,0 -5.39587,1.17708 -5.39587,3.145866 0,1.437467 0,2.927067 8.0208,6.0312 8.59893,3.322933 18.47867,8.869733 18.47867,22.369333 0,11.1458663 -8.05214,22.3959993 -26.036,22.3959993 z m 60.50533,0.0416 c -18.74533,0 -31.83333,-14.4786663 -31.83333,-35.213332 0,-21.344 13.448,-36.254666 32.70267,-36.254666 18.74533,0 31.83333,14.442666 31.83333,35.130666 0,25.1039989 -16.42667,36.3386653 -32.70267,36.3386653 z m 91.016,-6.5521332 c -0.005,3.0937333 -2.5104,5.5989332 -5.60413,5.5989332 h -7.61974 c -1.92706,0 -3.7188,-0.9947866 -4.7448,-2.6250666 L 321.46843,-25.189091 c -0.0729,-0.119733 -0.15104,-0.239586 -0.22396,-0.35416 0.005,0.67188 0.005,1.359334 0.005,2.062534 v 24.9373325 -0.00533 c -0.005,3.0937332 -2.5104,5.5989331 -5.60413,5.5989331 h -7.09894 c -3.08853,0 -5.59893,-2.5051999 -5.59893,-5.5989331 V -56.908716 c 0,-3.093734 2.5104,-5.598934 5.59893,-5.598934 h 8.2292 c 1.91667,0 3.70307,0.984374 4.7292,2.604134 l 18.156,28.661332 V -56.90885 c 0,-3.093733 2.5104,-5.598933 5.59894,-5.598933 h 7.09893 c 3.09373,0 5.59893,2.5052 5.60413,5.598933 z"
       id="path1075"
       style="fill:#ffffff;stroke-width:1.33333" /></g></svg>
