<?xml version="1.0" encoding="UTF-8" standalone="no"?>
<svg
   xmlns:dc="http://purl.org/dc/elements/1.1/"
   xmlns:cc="http://creativecommons.org/ns#"
   xmlns:rdf="http://www.w3.org/1999/02/22-rdf-syntax-ns#"
   xmlns:svg="http://www.w3.org/2000/svg"
   xmlns="http://www.w3.org/2000/svg"
   xmlns:sodipodi="http://sodipodi.sourceforge.net/DTD/sodipodi-0.dtd"
   xmlns:inkscape="http://www.inkscape.org/namespaces/inkscape"
   height="92.973976"
   width="85.739998"
   id="svg1158"
   xml:space="preserve"
   enable-background="new 0 0 100 100"
   viewBox="0 0 85.739998 92.973976"
   y="0px"
   x="0px"
   version="1.1"
   sodipodi:docname="landmark.svg"
   inkscape:version="0.92.3 (2405546, 2018-03-11)"><sodipodi:namedview
     pagecolor="#ffffff"
     bordercolor="#666666"
     borderopacity="1"
     objecttolerance="10"
     gridtolerance="10"
     guidetolerance="10"
     inkscape:pageopacity="0"
     inkscape:pageshadow="2"
     inkscape:window-width="1920"
     inkscape:window-height="1025"
     id="namedview823"
     showgrid="false"
     inkscape:zoom="9.077809"
     inkscape:cx="25.354759"
     inkscape:cy="46.486988"
     inkscape:window-x="0"
     inkscape:window-y="27"
     inkscape:window-maximized="1"
     inkscape:current-layer="svg1158" /><metadata
     id="metadata1164"><rdf:RDF><cc:Work
         rdf:about=""><dc:format>image/svg+xml</dc:format><dc:type
           rdf:resource="http://purl.org/dc/dcmitype/StillImage" /><dc:title /><dc:creator><cc:Agent><dc:title>Lluisa Iborra</dc:title></cc:Agent></dc:creator><dc:publisher><cc:Agent><dc:title>The Noun Project</dc:title></cc:Agent></dc:publisher></cc:Work></rdf:RDF></metadata><defs
     id="defs1162" /><g
     id="g1842"><path
       style="fill:#72808a;fill-opacity:1"
       d="M 17.316,57.410975 0,92.973975 h 85.74 l -17.326,-35.563 H 55.678 l 9.338,-11.913 c 4.644,-5.922 6.699,-13.293 5.792,-20.758 -0.908,-7.469 -4.677,-14.136 -10.609,-18.7740002 -12.199,-9.56 -29.909,-7.398 -39.484,4.8170002 -8.053,10.207 -8.053,24.484 0,34.717 0,0.002 0.002,0.002 0.004,0.002 l 9.312,11.909 z"
       id="path1836" /><path
       style="fill:#cfe5b5;fill-opacity:1"
       d="m 21.972,11.771975 c 9.032,-11.52000025 25.737,-13.5590002 37.24,-4.5470002 5.596,4.3770002 9.15,10.6660002 10.008,17.7080002 0.856,7.041 -1.084,13.994 -5.464,19.578 l -20.916,26.684 -20.868,-26.682 c -0.001,-0.002 -0.001,-0.002 -0.001,-0.003 -7.592,-9.649 -7.593,-23.109 0.001,-32.738 z"
       id="path1152" /><path
       d="m 42.84,49.082975 c 11.624,0 20.986,-9.372 20.986,-20.942 0,-11.586 -9.362,-20.9610002 -20.986,-20.9610002 -11.561,0 -20.938,9.3750002 -20.938,20.9610002 -0.001,11.57 9.377,20.942 20.938,20.942 z"
       id="path1150"
       style="fill:#72808a;fill-opacity:1" /><path
       style="fill:#cfe5b5;fill-opacity:1"
       d="m 50.488,67.575975 c 1.83,0.229 3.661,0.611 5.497,1.121 1.63,0.48 3.158,1.222 4.589,2.214 0.507,0.356 0.814,0.94 0.814,1.581 0,0.659 -0.308,1.247 -0.814,1.604 -1.431,0.995 -2.959,1.733 -4.589,2.214 -1.836,0.51 -3.667,0.895 -5.497,1.122 -2.555,0.307 -5.107,0.456 -7.648,0.456 -2.54,0 -5.045,-0.149 -7.589,-0.456 -1.836,-0.228 -3.72,-0.612 -5.511,-1.122 -1.623,-0.48 -3.146,-1.219 -4.573,-2.214 -0.521,-0.357 -0.814,-0.945 -0.814,-1.604 0,-0.641 0.294,-1.225 0.814,-1.581 1.427,-0.992 2.95,-1.733 4.573,-2.214 1.791,-0.51 3.675,-0.893 5.511,-1.121 0.846,-0.09 1.695,-0.165 2.542,-0.238 l 4.418,5.646 c 0.017,0.021 0.042,0.029 0.059,0.049 0.028,0.027 0.046,0.063 0.077,0.089 0.017,0.014 0.04,0.008 0.06,0.021 0.133,0.089 0.277,0.149 0.434,0.149 0.105,0 0.208,-0.028 0.307,-0.068 0.031,-0.013 0.058,-0.031 0.086,-0.047 0.033,-0.019 0.068,-0.03 0.1,-0.055 0.03,-0.023 0.046,-0.057 0.07,-0.083 0.021,-0.021 0.049,-0.029 0.067,-0.053 l 4.432,-5.653 c 0.859,0.075 1.72,0.151 2.585,0.243 z"
       id="path1834" /></g></svg>