<?xml version="1.0" encoding="UTF-8" standalone="no"?>
<svg
   xmlns:dc="http://purl.org/dc/elements/1.1/"
   xmlns:cc="http://creativecommons.org/ns#"
   xmlns:rdf="http://www.w3.org/1999/02/22-rdf-syntax-ns#"
   xmlns:svg="http://www.w3.org/2000/svg"
   xmlns="http://www.w3.org/2000/svg"
   height="19.950001"
   width="19.950001"
   id="svg923"
   xml:space="preserve"
   enable-background="new 0 0 20 20"
   viewBox="0 0 19.950001 19.950001"
   y="0px"
   x="0px"
   version="1.1"><metadata
     id="metadata929"><rdf:RDF><cc:Work
         rdf:about=""><dc:format>image/svg+xml</dc:format><dc:type
           rdf:resource="http://purl.org/dc/dcmitype/StillImage" /><dc:title></dc:title></cc:Work></rdf:RDF></metadata><defs
     id="defs927" /><g
     style="fill:#72808a;fill-opacity:1"
     transform="translate(-0.025,-0.025)"
     id="g917"><path
       style="fill:#72808a;fill-opacity:1"
       id="path907"
       d="M 5.6,9 H 3 V 7.3 C 3,7 2.7,6.9 2.5,7.1 L 0.1,9.8 C 0,9.9 0,10.1 0.1,10.2 l 2.4,2.7 C 2.7,13.1 3,13 3,12.7 V 11 H 5.6 C 5.8,11 6,10.8 6,10.6 V 9.4 C 6,9.2 5.8,9 5.6,9 Z" /><path
       style="fill:#72808a;fill-opacity:1"
       id="path909"
       d="M 7.3,3 H 9 V 5.6 C 9,5.8 9.2,6 9.4,6 h 1.2 C 10.8,6 11,5.8 11,5.6 V 3 h 1.7 C 13,3 13.1,2.7 12.9,2.5 L 10.2,0.1 C 10.1,0 9.9,0 9.8,0.1 L 7.1,2.5 C 6.9,2.7 7,3 7.3,3 Z" /><path
       style="fill:#72808a;fill-opacity:1"
       id="path911"
       d="M 12.7,17 H 11 V 14.4 C 11,14.2 10.8,14 10.6,14 H 9.4 C 9.2,14 9,14.2 9,14.4 V 17 H 7.3 C 7,17 6.9,17.3 7.1,17.5 l 2.7,2.4 c 0.1,0.1 0.3,0.1 0.4,0 l 2.7,-2.4 C 13.1,17.3 13,17 12.7,17 Z" /><path
       style="fill:#72808a;fill-opacity:1"
       id="path913"
       d="M 19.9,9.8 17.5,7.1 C 17.3,6.9 17,7 17,7.3 V 9 H 14.4 C 14.2,9 14,9.2 14,9.4 v 1.2 c 0,0.2 0.2,0.4 0.4,0.4 H 17 v 1.7 c 0,0.3 0.3,0.4 0.5,0.2 l 2.4,-2.7 C 20,10.1 20,9.9 19.9,9.8 Z" /><circle
       style="fill:#72808a;fill-opacity:1"
       id="circle915"
       r="3"
       cy="10"
       cx="10" /></g></svg>