<?xml version="1.0" encoding="UTF-8" standalone="no"?>
<svg
   xmlns:dc="http://purl.org/dc/elements/1.1/"
   xmlns:cc="http://creativecommons.org/ns#"
   xmlns:rdf="http://www.w3.org/1999/02/22-rdf-syntax-ns#"
   xmlns:svg="http://www.w3.org/2000/svg"
   xmlns="http://www.w3.org/2000/svg"
   version="1.1"
   x="0px"
   y="0px"
   viewBox="0 0 115.669 115.669"
   enable-background="new 0 0 139 139"
   xml:space="preserve"
   id="svg2075"
   width="115.669"
   height="115.669"><metadata
     id="metadata2081"><rdf:RDF><cc:Work
         rdf:about=""><dc:format>image/svg+xml</dc:format><dc:type
           rdf:resource="http://purl.org/dc/dcmitype/StillImage" /><dc:title></dc:title><dc:creator><cc:Agent><dc:title>Chanut is Industries</dc:title></cc:Agent></dc:creator><dc:publisher><cc:Agent><dc:title>The Noun Project</dc:title></cc:Agent></dc:publisher></cc:Work></rdf:RDF></metadata><defs
     id="defs2079" /><path
     id="path1463"
     d="M 57.832031 0 C 25.892031 0 0 25.893984 0 57.833984 C 0 89.772984 25.892031 115.66992 57.832031 115.66992 C 89.772031 115.66992 115.66992 89.772984 115.66992 57.833984 C 115.66992 25.893984 89.772031 4.7369516e-15 57.832031 0 z M 57.833984 22.833984 C 60.326984 22.833984 62.333984 24.840985 62.333984 27.333984 L 62.333984 53.333984 L 88.333984 53.333984 C 90.826984 53.333984 92.833984 55.340985 92.833984 57.833984 C 92.833984 60.326985 90.826984 62.333984 88.333984 62.333984 L 62.333984 62.333984 L 62.333984 88.333984 C 62.333984 90.826984 60.326984 92.833984 57.833984 92.833984 C 55.340984 92.833984 53.333984 90.826984 53.333984 88.333984 L 53.333984 62.333984 L 27.333984 62.333984 C 24.840984 62.333984 22.833984 60.326985 22.833984 57.833984 C 22.833984 55.340984 24.840984 53.333984 27.333984 53.333984 L 53.333984 53.333984 L 53.333984 27.333984 C 53.333984 24.840984 55.340984 22.833984 57.833984 22.833984 z "
     style="fill:#67969e;fill-opacity:1" /></svg>